<svg xmlns="http://www.w3.org/2000/svg" width="780" height="300" viewBox="0 0 780 300">
<rect width="100%" height="100%" fill="#ffffff"/>
<text x="160" y="28" font-family="Arial" font-size="18" font-weight="700" fill="#172033">RAGAS-equivalent Average Metrics</text>
<line x1="160.0" y1="56" x2="160.0" y2="252" stroke="#e8edf3"/>
<text x="160.0" y="276" text-anchor="middle" font-family="Arial" font-size="11" fill="#526070">0</text>
<line x1="276.0" y1="56" x2="276.0" y2="252" stroke="#e8edf3"/>
<text x="276.0" y="276" text-anchor="middle" font-family="Arial" font-size="11" fill="#526070">1</text>
<line x1="392.0" y1="56" x2="392.0" y2="252" stroke="#e8edf3"/>
<text x="392.0" y="276" text-anchor="middle" font-family="Arial" font-size="11" fill="#526070">2</text>
<line x1="508.0" y1="56" x2="508.0" y2="252" stroke="#e8edf3"/>
<text x="508.0" y="276" text-anchor="middle" font-family="Arial" font-size="11" fill="#526070">3</text>
<line x1="624.0" y1="56" x2="624.0" y2="252" stroke="#e8edf3"/>
<text x="624.0" y="276" text-anchor="middle" font-family="Arial" font-size="11" fill="#526070">4</text>
<line x1="740.0" y1="56" x2="740.0" y2="252" stroke="#e8edf3"/>
<text x="740.0" y="276" text-anchor="middle" font-family="Arial" font-size="11" fill="#526070">5</text>
<line x1="624.0" y1="56" x2="624.0" y2="252" stroke="#c0392b" stroke-dasharray="5 4" stroke-width="2"/>
<text x="629.0" y="68" font-family="Arial" font-size="11" fill="#c0392b">target 4</text>
<text x="150" y="95.1" text-anchor="end" font-family="Arial" font-size="12" fill="#243044">Faithfulness</text>
<rect x="160" y="70.7" width="580.0" height="35.9" rx="3" fill="#2f80ed"/>
<text x="746.0" y="95.1" font-family="Arial" font-size="12" fill="#243044">5.0</text>
<text x="150" y="160.5" text-anchor="end" font-family="Arial" font-size="12" fill="#243044">Relevance</text>
<rect x="160" y="136.0" width="580.0" height="35.9" rx="3" fill="#27ae60"/>
<text x="746.0" y="160.5" font-family="Arial" font-size="12" fill="#243044">5.0</text>
<text x="150" y="225.8" text-anchor="end" font-family="Arial" font-size="12" fill="#243044">Socratic</text>
<rect x="160" y="201.4" width="498.8" height="35.9" rx="3" fill="#f2994a"/>
<text x="664.8" y="225.8" font-family="Arial" font-size="12" fill="#243044">4.3</text>
</svg>
