<svg xmlns="http://www.w3.org/2000/svg" width="900" height="390" viewBox="0 0 900 390">
<rect width="100%" height="100%" fill="#fff"/>
<text x="58" y="28" font-family="Arial" font-size="18" font-weight="700" fill="#172033">RAGAS Scores by Golden Case</text>
<line x1="58" y1="330.0" x2="870" y2="330.0" stroke="#e8edf3"/>
<text x="50" y="334.0" text-anchor="end" font-family="Arial" font-size="11" fill="#526070">0</text>
<line x1="58" y1="275.2" x2="870" y2="275.2" stroke="#e8edf3"/>
<text x="50" y="279.2" text-anchor="end" font-family="Arial" font-size="11" fill="#526070">1</text>
<line x1="58" y1="220.4" x2="870" y2="220.4" stroke="#e8edf3"/>
<text x="50" y="224.4" text-anchor="end" font-family="Arial" font-size="11" fill="#526070">2</text>
<line x1="58" y1="165.6" x2="870" y2="165.6" stroke="#e8edf3"/>
<text x="50" y="169.6" text-anchor="end" font-family="Arial" font-size="11" fill="#526070">3</text>
<line x1="58" y1="110.8" x2="870" y2="110.8" stroke="#e8edf3"/>
<text x="50" y="114.8" text-anchor="end" font-family="Arial" font-size="11" fill="#526070">4</text>
<line x1="58" y1="56.0" x2="870" y2="56.0" stroke="#e8edf3"/>
<text x="50" y="60.0" text-anchor="end" font-family="Arial" font-size="11" fill="#526070">5</text>
<line x1="58" y1="110.8" x2="870" y2="110.8" stroke="#c0392b" stroke-dasharray="5 4" stroke-width="2"/>
<polyline fill="none" stroke="#2f80ed" stroke-width="3" points="58.0,56.0 148.2,56.0 238.4,56.0 328.7,56.0 418.9,56.0 509.1,56.0 599.3,56.0 689.6,56.0 779.8,56.0 870.0,56.0"/>
<circle cx="58.0" cy="56.0" r="4" fill="#2f80ed"/>
<circle cx="148.2" cy="56.0" r="4" fill="#2f80ed"/>
<circle cx="238.4" cy="56.0" r="4" fill="#2f80ed"/>
<circle cx="328.7" cy="56.0" r="4" fill="#2f80ed"/>
<circle cx="418.9" cy="56.0" r="4" fill="#2f80ed"/>
<circle cx="509.1" cy="56.0" r="4" fill="#2f80ed"/>
<circle cx="599.3" cy="56.0" r="4" fill="#2f80ed"/>
<circle cx="689.6" cy="56.0" r="4" fill="#2f80ed"/>
<circle cx="779.8" cy="56.0" r="4" fill="#2f80ed"/>
<circle cx="870.0" cy="56.0" r="4" fill="#2f80ed"/>
<polyline fill="none" stroke="#f2994a" stroke-width="3" points="58.0,56.0 148.2,165.6 238.4,56.0 328.7,165.6 418.9,56.0 509.1,56.0 599.3,165.6 689.6,56.0 779.8,110.8 870.0,56.0"/>
<circle cx="58.0" cy="56.0" r="4" fill="#f2994a"/>
<circle cx="148.2" cy="165.6" r="4" fill="#f2994a"/>
<circle cx="238.4" cy="56.0" r="4" fill="#f2994a"/>
<circle cx="328.7" cy="165.6" r="4" fill="#f2994a"/>
<circle cx="418.9" cy="56.0" r="4" fill="#f2994a"/>
<circle cx="509.1" cy="56.0" r="4" fill="#f2994a"/>
<circle cx="599.3" cy="165.6" r="4" fill="#f2994a"/>
<circle cx="689.6" cy="56.0" r="4" fill="#f2994a"/>
<circle cx="779.8" cy="110.8" r="4" fill="#f2994a"/>
<circle cx="870.0" cy="56.0" r="4" fill="#f2994a"/>
<text x="58.0" y="355" text-anchor="middle" font-family="Arial" font-size="11" fill="#243044">TC-001</text>
<text x="148.2" y="355" text-anchor="middle" font-family="Arial" font-size="11" fill="#243044">TC-002</text>
<text x="238.4" y="355" text-anchor="middle" font-family="Arial" font-size="11" fill="#243044">TC-003</text>
<text x="328.7" y="355" text-anchor="middle" font-family="Arial" font-size="11" fill="#243044">TC-004</text>
<text x="418.9" y="355" text-anchor="middle" font-family="Arial" font-size="11" fill="#243044">TC-005</text>
<text x="509.1" y="355" text-anchor="middle" font-family="Arial" font-size="11" fill="#243044">TC-006</text>
<text x="599.3" y="355" text-anchor="middle" font-family="Arial" font-size="11" fill="#243044">TC-007</text>
<text x="689.6" y="355" text-anchor="middle" font-family="Arial" font-size="11" fill="#243044">TC-008</text>
<text x="779.8" y="355" text-anchor="middle" font-family="Arial" font-size="11" fill="#243044">TC-009</text>
<text x="870.0" y="355" text-anchor="middle" font-family="Arial" font-size="11" fill="#243044">TC-010</text>
<rect x="58" y="360" width="12" height="12" fill="#2f80ed"/><text x="76" y="370" font-family="Arial" font-size="12">Faithfulness</text>
<rect x="208" y="360" width="12" height="12" fill="#f2994a"/><text x="226" y="370" font-family="Arial" font-size="12">Socratic</text>
</svg>
